<!DOCTYPE svg PUBLIC "-//W3C//DTD SVG 1.1//EN" "http://www.w3.org/Graphics/SVG/1.1/DTD/svg11.dtd">
<!-- Uploaded to: SVG Repo, www.svgrepo.com, Transformed by: SVG Repo Mixer Tools -->
<svg fill="#854EF2" version="1.1" id="Layer_1" xmlns="http://www.w3.org/2000/svg" xmlns:xlink="http://www.w3.org/1999/xlink" viewBox="0 0 491.52 491.52" xml:space="preserve" width="800px" height="800px" stroke="#854EF2">
<g id="SVGRepo_bgCarrier" stroke-width="0"/>
<g id="SVGRepo_tracerCarrier" stroke-linecap="round" stroke-linejoin="round"/>
<g id="SVGRepo_iconCarrier"> <g> <g> <path d="M0,0v491.52h491.52V0H0z M471.04,471.04H20.48V102.4h450.56V471.04z M471.04,81.92H20.48V20.48h450.56V81.92z"/> </g> </g> <g> <g> <rect x="430.08" y="40.96" width="20.48" height="20.48"/> </g> </g> <g> <g> <rect x="389.12" y="40.96" width="20.48" height="20.48"/> </g> </g> <g> <g> <rect x="348.16" y="40.96" width="20.48" height="20.48"/> </g> </g> <g> <g> <rect x="51.2" y="40.96" width="245.76" height="20.48"/> </g> </g> <g> <g> <rect x="40.96" y="122.88" width="30.72" height="20.48"/> </g> </g> <g> <g> <rect x="102.4" y="122.88" width="92.16" height="20.48"/> </g> </g> <g> <g> <rect x="215.04" y="122.88" width="51.2" height="20.48"/> </g> </g> <g> <g> <rect x="102.4" y="276.48" width="92.16" height="20.48"/> </g> </g> <g> <g> <rect x="215.04" y="276.48" width="51.2" height="20.48"/> </g> </g> <g> <g> <rect x="102.4" y="174.08" width="61.44" height="20.48"/> </g> </g> <g> <g> <rect x="327.68" y="174.08" width="30.72" height="20.48"/> </g> </g> <g> <g> <rect x="184.32" y="174.08" width="122.88" height="20.48"/> </g> </g> <g> <g> <rect x="102.4" y="430.08" width="61.44" height="20.48"/> </g> </g> <g> <g> <rect x="327.68" y="430.08" width="30.72" height="20.48"/> </g> </g> <g> <g> <rect x="184.32" y="430.08" width="122.88" height="20.48"/> </g> </g> <g> <g> <rect x="235.52" y="225.28" width="40.96" height="20.48"/> </g> </g> <g> <g> <rect x="133.12" y="225.28" width="81.92" height="20.48"/> </g> </g> <g> <g> <rect x="296.96" y="225.28" width="153.6" height="20.48"/> </g> </g> <g> <g> <rect x="276.48" y="327.68" width="40.96" height="20.48"/> </g> </g> <g> <g> <rect x="337.92" y="327.68" width="81.92" height="20.48"/> </g> </g> <g> <g> <rect x="102.4" y="327.68" width="153.6" height="20.48"/> </g> </g> <g> <g> <rect x="296.96" y="378.88" width="71.68" height="20.48"/> </g> </g> <g> <g> <rect x="163.84" y="378.88" width="112.64" height="20.48"/> </g> </g> <g> <g> <rect x="40.96" y="174.08" width="30.72" height="20.48"/> </g> </g> <g> <g> <rect x="40.96" y="225.28" width="30.72" height="20.48"/> </g> </g> <g> <g> <rect x="40.96" y="276.48" width="30.72" height="20.48"/> </g> </g> <g> <g> <rect x="40.96" y="327.68" width="30.72" height="20.48"/> </g> </g> <g> <g> <rect x="40.96" y="378.88" width="30.72" height="20.48"/> </g> </g> <g> <g> <rect x="40.96" y="430.08" width="30.72" height="20.48"/> </g> </g> </g>
</svg>